<svg width="30" height="8" viewBox="0 0 30 8" fill="none" xmlns="http://www.w3.org/2000/svg">
<path d="M13.9476 5.77379H12.6828C12.5864 5.77379 12.5033 5.68859 12.5033 5.59169V2.37509C12.5033 2.28309 12.5893 2.19209 12.6853 2.19209H13.9621C14.5179 2.19209 14.9549 2.35119 15.2708 2.67189C15.5882 2.99419 15.7458 3.43289 15.7458 3.98539C15.7458 4.53789 15.5858 4.97409 15.2659 5.29399C14.9525 5.61389 14.5131 5.77379 13.9476 5.77379V5.77379ZM13.4096 3.05969V4.90629H13.9912C14.253 4.90629 14.4533 4.81739 14.5922 4.63969C14.7344 4.45869 14.8055 4.23899 14.8055 3.98049C14.8055 3.72529 14.7344 3.50719 14.5922 3.32619C14.4533 3.14849 14.253 3.05969 13.9912 3.05969H13.4096V3.05969ZM19.036 5.77379C18.8458 5.77379 18.6557 5.77379 18.4656 5.77379C18.3804 5.77379 18.254 5.68999 18.2284 5.59479L18.0771 5.11949H16.9381L16.7853 5.58829C16.7517 5.69139 16.639 5.77379 16.5455 5.77379C16.3546 5.77379 16.1636 5.77379 15.9727 5.77379C15.8808 5.77379 15.8216 5.68549 15.8557 5.59219C16.2477 4.51939 16.6396 3.44669 17.0316 2.37399C17.0652 2.28179 17.191 2.19209 17.2829 2.19209C17.4436 2.19209 17.6043 2.19209 17.7649 2.19209C17.8564 2.19209 17.9719 2.27799 18.007 2.37649C18.3883 3.44759 18.7694 4.51869 19.1505 5.58979C19.1843 5.68459 19.1268 5.77379 19.036 5.77379V5.77379ZM17.1659 4.33439H17.8589L17.5197 3.27289L17.1659 4.33439ZM22.3363 5.77379C22.1113 5.77379 21.8863 5.77379 21.6613 5.77379C21.5689 5.77379 21.4316 5.68359 21.3834 5.59269L20.8494 4.58639H20.4956C20.4956 4.92109 20.4956 5.25579 20.4956 5.59049C20.4956 5.68469 20.4061 5.77379 20.3156 5.77379C20.1341 5.77379 19.9526 5.77379 19.7711 5.77379C19.6805 5.77379 19.5892 5.68339 19.5892 5.59239C19.5892 4.51919 19.5892 3.44599 19.5892 2.37279C19.5892 2.28249 19.6804 2.19209 19.7695 2.19209H21.082C21.5118 2.19209 21.8381 2.30519 22.0611 2.53139C22.284 2.75429 22.3955 3.03699 22.3955 3.37949C22.3955 3.61219 22.3398 3.82299 22.2283 4.01199C22.1168 4.20109 21.9545 4.34569 21.7412 4.44579C21.9641 4.82749 22.187 5.20919 22.4099 5.59089C22.4657 5.68649 22.4281 5.77379 22.3363 5.77379V5.77379ZM21.0724 3.02089H20.4956V3.79639H21.0384C21.2194 3.80609 21.3454 3.74309 21.4165 3.60729C21.4876 3.47159 21.4876 3.33669 21.4165 3.20259C21.3454 3.06849 21.2307 3.00799 21.0724 3.02089V3.02089ZM24.9899 2.19209C25.2231 2.19209 25.4563 2.19209 25.6895 2.19209C25.7811 2.19209 25.8226 2.28319 25.7741 2.37509L24.6153 4.57179C24.6153 4.91199 24.6153 5.25219 24.6153 5.59229C24.6153 5.68329 24.5252 5.77379 24.4337 5.77379C24.2549 5.77379 24.076 5.77379 23.8972 5.77379C23.8019 5.77379 23.7138 5.68319 23.7138 5.59129V4.57179C23.3322 3.83979 22.9505 3.10779 22.5688 2.37579C22.5218 2.28559 22.5635 2.19209 22.6552 2.19209C22.889 2.19209 23.1229 2.19209 23.3567 2.19209C23.4487 2.19209 23.5806 2.28249 23.6224 2.37429L24.1646 3.56369C24.351 3.16699 24.5374 2.77039 24.7239 2.37369C24.766 2.28409 24.8994 2.19209 24.9899 2.19209V2.19209ZM29.0114 5.29889C28.6559 5.65429 28.2116 5.83199 27.6785 5.83199C27.1453 5.83199 26.6978 5.65429 26.3359 5.29889C25.9805 4.94339 25.8028 4.50559 25.8028 3.98539C25.8028 3.46519 25.9821 3.02569 26.3408 2.66709C26.6995 2.30839 27.1437 2.12909 27.6737 2.12909C28.2068 2.12909 28.6527 2.30839 29.0114 2.66709C29.37 3.02569 29.5494 3.46519 29.5494 3.98539C29.5494 4.50239 29.37 4.94019 29.0114 5.29889ZM27.6737 4.93539C27.9386 4.93539 28.1616 4.84489 28.3425 4.66389C28.5234 4.48299 28.6139 4.25519 28.6139 3.98049C28.6075 3.70269 28.5138 3.47489 28.3328 3.29709C28.1519 3.11619 27.9321 3.02569 27.6737 3.02569C27.4119 3.02569 27.1906 3.11779 27.0096 3.30199C26.8287 3.48289 26.7382 3.70909 26.7382 3.98049C26.7382 4.25519 26.8287 4.48299 27.0096 4.66389C27.1906 4.84489 27.4119 4.93539 27.6737 4.93539Z" fill="black"/>
<path fill-rule="evenodd" clip-rule="evenodd" d="M1.33881 0.320099H6.92271C8.94661 0.320099 10.6026 1.976 10.6026 4C10.6026 6.0239 8.94661 7.6799 6.92271 7.6799H1.33881C0.850314 7.6799 0.450714 7.2802 0.450714 6.7917V1.2083C0.450714 0.719799 0.850314 0.320099 1.33881 0.320099V0.320099ZM2.66281 2.1899H6.89781C7.88341 2.1899 8.68981 2.9963 8.68981 3.9819C8.68981 4.9674 7.88321 5.7738 6.89781 5.7738H5.20431C5.15381 5.7738 5.10841 5.7867 5.06821 5.8171L3.92771 6.6799C3.85661 6.7337 3.76491 6.7383 3.68491 6.6978C3.60491 6.6573 3.55431 6.5812 3.55421 6.4915L3.55411 6.303C3.55411 6.0528 3.31581 5.7725 3.03471 5.7723C2.91351 5.7722 2.79231 5.7721 2.67111 5.7721C2.36981 5.7721 2.13911 5.5409 2.13911 5.2454V2.72C2.13911 2.4283 2.37111 2.1899 2.66281 2.1899V2.1899Z" fill="#008CCC"/>
</svg>
